<?xml version="1.0" encoding="iso-8859-1"?>
<!-- Generator: Adobe Illustrator 19.0.0, SVG Export Plug-In . SVG Version: 6.00 Build 0)  -->
<svg version="1.1" id="Capa_1" xmlns="http://www.w3.org/2000/svg" xmlns:xlink="http://www.w3.org/1999/xlink" x="0px" y="0px"
	 viewBox="0 0 512 512" style="enable-background:new 0 0 512 512;" xml:space="preserve">
<path style="fill:#303C42;" d="M469.333,42.667H42.667C19.146,42.667,0,61.802,0,85.333v341.333
	c0,23.531,19.146,42.667,42.667,42.667h426.667c23.521,0,42.667-19.135,42.667-42.667V85.333
	C512,61.802,492.854,42.667,469.333,42.667z"/>
<path style="fill:#455A64;" d="M469.333,448H42.667c-11.771,0-21.333-9.573-21.333-21.333H32c5.896,0,10.667-4.771,10.667-10.667
	c0-5.896-4.771-10.667-10.667-10.667H21.333V106.667H32c5.896,0,10.667-4.771,10.667-10.667c0-5.896-4.771-10.667-10.667-10.667
	H21.333C21.333,73.573,30.896,64,42.667,64h426.667c11.771,0,21.333,9.573,21.333,21.333H480c-5.896,0-10.667,4.771-10.667,10.667
	c0,5.896,4.771,10.667,10.667,10.667h10.667v298.667H480c-5.896,0-10.667,4.771-10.667,10.667c0,5.896,4.771,10.667,10.667,10.667
	h10.667C490.667,438.427,481.104,448,469.333,448z"/>
<linearGradient id="SVGID_1_" gradientUnits="userSpaceOnUse" x1="-46.8872" y1="640.1674" x2="-22.519" y2="628.8014" gradientTransform="matrix(21.3333 0 0 -21.3333 996.3334 13791.667)">
	<stop  offset="0" style="stop-color:#FFFFFF;stop-opacity:0.2"/>
	<stop  offset="1" style="stop-color:#FFFFFF;stop-opacity:0"/>
</linearGradient>
<path style="fill:url(#SVGID_1_);" d="M469.333,448H42.667c-11.771,0-21.333-9.573-21.333-21.333H32
	c5.896,0,10.667-4.771,10.667-10.667c0-5.896-4.771-10.667-10.667-10.667H21.333V106.667H32c5.896,0,10.667-4.771,10.667-10.667
	c0-5.896-4.771-10.667-10.667-10.667H21.333C21.333,73.573,30.896,64,42.667,64h426.667c11.771,0,21.333,9.573,21.333,21.333H480
	c-5.896,0-10.667,4.771-10.667,10.667c0,5.896,4.771,10.667,10.667,10.667h10.667v298.667H480c-5.896,0-10.667,4.771-10.667,10.667
	c0,5.896,4.771,10.667,10.667,10.667h10.667C490.667,438.427,481.104,448,469.333,448z"/>
<linearGradient id="SVGID_2_" gradientUnits="userSpaceOnUse" x1="-41.1661" y1="645.6806" x2="-28.2402" y2="623.2881" gradientTransform="matrix(21.3333 0 0 -21.3333 996.3334 13791.667)">
	<stop  offset="0" style="stop-color:#FFFFFF;stop-opacity:0.2"/>
	<stop  offset="1" style="stop-color:#FFFFFF;stop-opacity:0"/>
</linearGradient>
<path style="fill:url(#SVGID_2_);" d="M469.333,448H42.667c-11.771,0-21.333-9.573-21.333-21.333H32
	c5.896,0,10.667-4.771,10.667-10.667c0-5.896-4.771-10.667-10.667-10.667H21.333V106.667H32c5.896,0,10.667-4.771,10.667-10.667
	c0-5.896-4.771-10.667-10.667-10.667H21.333C21.333,73.573,30.896,64,42.667,64h426.667c11.771,0,21.333,9.573,21.333,21.333H480
	c-5.896,0-10.667,4.771-10.667,10.667c0,5.896,4.771,10.667,10.667,10.667h10.667v298.667H480c-5.896,0-10.667,4.771-10.667,10.667
	c0,5.896,4.771,10.667,10.667,10.667h10.667C490.667,438.427,481.104,448,469.333,448z"/>
<path style="fill:#303C42;" d="M362.667,256c0-3.448-1.667-6.677-4.458-8.677L208.875,140.656
	c-3.271-2.333-7.542-2.656-11.083-0.802c-3.563,1.823-5.792,5.479-5.792,9.479v213.333c0,4,2.229,7.656,5.792,9.479
	c1.542,0.802,3.208,1.188,4.875,1.188c2.188,0,4.354-0.667,6.208-1.99l149.333-106.667C361,262.677,362.667,259.448,362.667,256z"/>
<polygon style="fill:#D32F2F;" points="213.333,341.938 213.333,170.063 333.646,256 "/>
<polygon style="opacity:0.1;enable-background:new    ;" points="213.333,341.938 213.333,256 333.646,256 "/>
<g>
	<path style="fill:#303C42;" d="M154.188,85.333h-40.729c-5.896,0-10.667,4.771-10.667,10.667c0,5.896,4.771,10.667,10.667,10.667
		h40.729c5.896,0,10.667-4.771,10.667-10.667C164.854,90.104,160.083,85.333,154.188,85.333z"/>
	<path style="fill:#303C42;" d="M235.646,106.667h40.729c5.896,0,10.667-4.771,10.667-10.667c0-5.896-4.771-10.667-10.667-10.667
		h-40.729c-5.896,0-10.667,4.771-10.667,10.667C224.979,101.896,229.75,106.667,235.646,106.667z"/>
	<path style="fill:#303C42;" d="M398.542,85.333h-40.729c-5.896,0-10.667,4.771-10.667,10.667c0,5.896,4.771,10.667,10.667,10.667
		h40.729c5.896,0,10.667-4.771,10.667-10.667C409.208,90.104,404.438,85.333,398.542,85.333z"/>
	<path style="fill:#303C42;" d="M154.188,405.333h-40.729c-5.896,0-10.667,4.771-10.667,10.667c0,5.896,4.771,10.667,10.667,10.667
		h40.729c5.896,0,10.667-4.771,10.667-10.667C164.854,410.104,160.083,405.333,154.188,405.333z"/>
	<path style="fill:#303C42;" d="M276.375,405.333h-40.729c-5.896,0-10.667,4.771-10.667,10.667c0,5.896,4.771,10.667,10.667,10.667
		h40.729c5.896,0,10.667-4.771,10.667-10.667C287.042,410.104,282.271,405.333,276.375,405.333z"/>
	<path style="fill:#303C42;" d="M398.542,405.333h-40.729c-5.896,0-10.667,4.771-10.667,10.667c0,5.896,4.771,10.667,10.667,10.667
		h40.729c5.896,0,10.667-4.771,10.667-10.667C409.208,410.104,404.438,405.333,398.542,405.333z"/>
</g>
<linearGradient id="SVGID_3_" gradientUnits="userSpaceOnUse" x1="-47.7942" y1="640.5867" x2="-21.612" y2="628.3821" gradientTransform="matrix(21.3333 0 0 -21.3333 996.3334 13791.667)">
	<stop  offset="0" style="stop-color:#FFFFFF;stop-opacity:0.2"/>
	<stop  offset="1" style="stop-color:#FFFFFF;stop-opacity:0"/>
</linearGradient>
<path style="fill:url(#SVGID_3_);" d="M469.333,42.667H42.667C19.146,42.667,0,61.802,0,85.333v341.333
	c0,23.531,19.146,42.667,42.667,42.667h426.667c23.521,0,42.667-19.135,42.667-42.667V85.333
	C512,61.802,492.854,42.667,469.333,42.667z"/>
<g>
</g>
<g>
</g>
<g>
</g>
<g>
</g>
<g>
</g>
<g>
</g>
<g>
</g>
<g>
</g>
<g>
</g>
<g>
</g>
<g>
</g>
<g>
</g>
<g>
</g>
<g>
</g>
<g>
</g>
</svg>
